<?xml version="1.0" encoding="UTF-8" standalone="no"?>
<!DOCTYPE svg PUBLIC "-//W3C//DTD SVG 1.1//EN"
 "http://www.w3.org/Graphics/SVG/1.1/DTD/svg11.dtd">
<!-- Generated by graphviz version 2.47.0 (20210316.0004)
 -->
<!-- Title: dependencies Pages: 1 -->
<svg width="891pt" height="211pt"
 viewBox="0.00 0.00 891.00 211.00" xmlns="http://www.w3.org/2000/svg" xmlns:xlink="http://www.w3.org/1999/xlink">
<g id="graph0" class="graph" transform="scale(1 1) rotate(0) translate(4 207)">
<title>dependencies</title>
<polygon fill="white" stroke="transparent" points="-4,4 -4,-207 887,-207 887,4 -4,4"/>
<text text-anchor="start" x="420.51" y="-42.4" font-family="Times-12" font-weight="bold" font-size="14.00">Legend</text>
<polygon fill="#ffffb3" stroke="transparent" points="207.5,-10 207.5,-30 227.5,-30 227.5,-10 207.5,-10"/>
<text text-anchor="start" x="231.13" y="-15.4" font-family="Times-12" font-size="14.00"> &#160;Declarations</text>
<polygon fill="#8dd3c7" stroke="transparent" points="320.5,-10 320.5,-30 340.5,-30 340.5,-10 320.5,-10"/>
<text text-anchor="start" x="344.23" y="-15.4" font-family="Times-12" font-size="14.00"> &#160;Module</text>
<polygon fill="#80b1d3" stroke="transparent" points="406.5,-10 406.5,-30 426.5,-30 426.5,-10 406.5,-10"/>
<text text-anchor="start" x="430.28" y="-15.4" font-family="Times-12" font-size="14.00"> &#160;Bootstrap</text>
<polygon fill="#fdb462" stroke="transparent" points="503.5,-10 503.5,-30 523.5,-30 523.5,-10 503.5,-10"/>
<text text-anchor="start" x="527.17" y="-15.4" font-family="Times-12" font-size="14.00"> &#160;Providers</text>
<polygon fill="#fb8072" stroke="transparent" points="599.5,-10 599.5,-30 619.5,-30 619.5,-10 599.5,-10"/>
<text text-anchor="start" x="623.23" y="-15.4" font-family="Times-12" font-size="14.00"> &#160;Exports</text>
<g id="clust1" class="cluster">
<title>cluster_AppModule</title>
<polygon fill="none" stroke="black" stroke-dasharray="1,5" points="8,-70 8,-195 875,-195 875,-70 8,-70"/>
</g>
<g id="clust6" class="cluster">
<title>cluster_AppModule_providers</title>
<polygon fill="none" stroke="black" points="16,-78 16,-130 867,-130 867,-78 16,-78"/>
</g>
<!-- AppService -->
<g id="node1" class="node">
<title>AppService</title>
<ellipse fill="#fdb462" stroke="black" cx="802" cy="-104" rx="56.74" ry="18"/>
<text text-anchor="middle" x="802" y="-99.8" font-family="Times,serif" font-size="14.00">AppService</text>
</g>
<!-- AppModule -->
<g id="node7" class="node">
<title>AppModule</title>
<polygon fill="#8dd3c7" stroke="black" points="486.66,-187 483.66,-191 462.66,-191 459.66,-187 403.34,-187 403.34,-151 486.66,-151 486.66,-187"/>
<text text-anchor="middle" x="445" y="-164.8" font-family="Times,serif" font-size="14.00">AppModule</text>
</g>
<!-- AppService&#45;&gt;AppModule -->
<g id="edge1" class="edge">
<title>AppService&#45;&gt;AppModule</title>
<path fill="none" stroke="black" d="M802,-122.28C802,-143.32 802,-175 802,-175 802,-175 497,-175 497,-175"/>
<polygon fill="black" stroke="black" points="497,-171.5 487,-175 497,-178.5 497,-171.5"/>
</g>
<!-- CodesService -->
<g id="node2" class="node">
<title>CodesService</title>
<ellipse fill="#fdb462" stroke="black" cx="663" cy="-104" rx="64.26" ry="18"/>
<text text-anchor="middle" x="663" y="-99.8" font-family="Times,serif" font-size="14.00">CodesService</text>
</g>
<!-- CodesService&#45;&gt;AppModule -->
<g id="edge2" class="edge">
<title>CodesService&#45;&gt;AppModule</title>
<path fill="none" stroke="black" d="M663,-122.02C663,-139.37 663,-163 663,-163 663,-163 496.77,-163 496.77,-163"/>
<polygon fill="black" stroke="black" points="496.77,-159.5 486.77,-163 496.77,-166.5 496.77,-159.5"/>
</g>
<!-- NewsService -->
<g id="node3" class="node">
<title>NewsService</title>
<ellipse fill="#fdb462" stroke="black" cx="519" cy="-104" rx="61.95" ry="18"/>
<text text-anchor="middle" x="519" y="-99.8" font-family="Times,serif" font-size="14.00">NewsService</text>
</g>
<!-- NewsService&#45;&gt;AppModule -->
<g id="edge3" class="edge">
<title>NewsService&#45;&gt;AppModule</title>
<path fill="none" stroke="black" d="M471.93,-115.92C471.93,-115.92 471.93,-140.77 471.93,-140.77"/>
<polygon fill="black" stroke="black" points="468.43,-140.77 471.93,-150.77 475.43,-140.77 468.43,-140.77"/>
</g>
<!-- PrismaService -->
<g id="node4" class="node">
<title>PrismaService</title>
<ellipse fill="#fdb462" stroke="black" cx="372" cy="-104" rx="66.63" ry="18"/>
<text text-anchor="middle" x="372" y="-99.8" font-family="Times,serif" font-size="14.00">PrismaService</text>
</g>
<!-- PrismaService&#45;&gt;AppModule -->
<g id="edge4" class="edge">
<title>PrismaService&#45;&gt;AppModule</title>
<path fill="none" stroke="black" d="M420.99,-116.53C420.99,-116.53 420.99,-140.85 420.99,-140.85"/>
<polygon fill="black" stroke="black" points="417.49,-140.85 420.99,-150.85 424.49,-140.85 417.49,-140.85"/>
</g>
<!-- TokenService -->
<g id="node5" class="node">
<title>TokenService</title>
<ellipse fill="#fdb462" stroke="black" cx="223" cy="-104" rx="64.83" ry="18"/>
<text text-anchor="middle" x="223" y="-99.8" font-family="Times,serif" font-size="14.00">TokenService</text>
</g>
<!-- TokenService&#45;&gt;AppModule -->
<g id="edge5" class="edge">
<title>TokenService&#45;&gt;AppModule</title>
<path fill="none" stroke="black" d="M223,-122.02C223,-139.37 223,-163 223,-163 223,-163 393.24,-163 393.24,-163"/>
<polygon fill="black" stroke="black" points="393.24,-166.5 403.24,-163 393.24,-159.5 393.24,-166.5"/>
</g>
<!-- UserService -->
<g id="node6" class="node">
<title>UserService</title>
<ellipse fill="#fdb462" stroke="black" cx="82" cy="-104" rx="58.44" ry="18"/>
<text text-anchor="middle" x="82" y="-99.8" font-family="Times,serif" font-size="14.00">UserService</text>
</g>
<!-- UserService&#45;&gt;AppModule -->
<g id="edge6" class="edge">
<title>UserService&#45;&gt;AppModule</title>
<path fill="none" stroke="black" d="M82,-122.28C82,-143.32 82,-175 82,-175 82,-175 393,-175 393,-175"/>
<polygon fill="black" stroke="black" points="393,-178.5 403,-175 393,-171.5 393,-178.5"/>
</g>
</g>
</svg>
